<svg xmlns="http://www.w3.org/2000/svg" xmlns:xlink="http://www.w3.org/1999/xlink" width="110" zoomAndPan="magnify" viewBox="0 0 82.5 83.249999" height="111" preserveAspectRatio="xMidYMid meet" version="1.2"><defs><clipPath id="8d056b5317"><path d="M 0.121094 0 L 81.882812 0 L 81.882812 82.507812 L 0.121094 82.507812 Z M 0.121094 0 "/></clipPath></defs><g id="3a8ecb5414"><g clip-rule="nonzero" clip-path="url(#8d056b5317)"><path style=" stroke:none;fill-rule:evenodd;fill:#000000;fill-opacity:1;" d="M 9.949219 54.261719 C 9.441406 53.976562 8.949219 53.683594 8.476562 53.386719 C 3.144531 50.007812 0.121094 45.753906 0.121094 41.246094 C 0.121094 36.742188 3.144531 32.488281 8.476562 29.109375 C 8.949219 28.808594 9.441406 28.519531 9.949219 28.234375 C 9.789062 27.671875 9.648438 27.117188 9.527344 26.574219 C 8.144531 20.414062 9.015625 15.265625 12.199219 12.082031 C 15.386719 8.894531 20.535156 8.023438 26.695312 9.40625 C 27.238281 9.53125 27.792969 9.667969 28.351562 9.828125 C 28.640625 9.320312 28.929688 8.828125 29.230469 8.359375 C 32.605469 3.023438 36.863281 0 41.367188 0 C 45.875 0 50.128906 3.023438 53.507812 8.359375 C 53.804688 8.828125 54.097656 9.320312 54.382812 9.828125 C 54.945312 9.667969 55.496094 9.53125 56.042969 9.40625 C 62.203125 8.023438 67.351562 8.894531 70.535156 12.082031 C 73.722656 15.265625 74.589844 20.414062 73.207031 26.574219 C 73.085938 27.117188 72.945312 27.671875 72.789062 28.234375 C 73.296875 28.519531 73.785156 28.808594 74.257812 29.109375 C 79.59375 32.488281 82.617188 36.742188 82.617188 41.246094 C 82.617188 45.753906 79.59375 50.007812 74.257812 53.386719 C 73.785156 53.683594 73.296875 53.976562 72.789062 54.261719 C 72.945312 54.824219 73.085938 55.375 73.207031 55.921875 C 74.589844 62.082031 73.722656 67.230469 70.535156 70.414062 C 67.351562 73.601562 62.203125 74.472656 56.042969 73.085938 C 55.496094 72.964844 54.945312 72.824219 54.382812 72.667969 C 54.097656 73.175781 53.804688 73.664062 53.507812 74.136719 C 50.128906 79.472656 45.875 82.496094 41.367188 82.496094 C 36.863281 82.496094 32.605469 79.472656 29.230469 74.136719 C 28.929688 73.664062 28.640625 73.175781 28.351562 72.667969 C 27.792969 72.824219 27.238281 72.964844 26.695312 73.085938 C 20.535156 74.472656 15.386719 73.601562 12.199219 70.414062 C 9.015625 67.230469 8.144531 62.082031 9.527344 55.921875 C 9.648438 55.375 9.789062 54.824219 9.949219 54.261719 Z M 10.863281 31.066406 C 10.582031 31.230469 10.308594 31.398438 10.035156 31.570312 C 5.710938 34.308594 3.03125 37.59375 3.03125 41.246094 C 3.03125 44.898438 5.710938 48.1875 10.035156 50.925781 C 10.308594 51.097656 10.582031 51.265625 10.863281 51.429688 C 12.054688 48.183594 13.761719 44.742188 15.949219 41.246094 C 13.761719 37.753906 12.054688 34.3125 10.863281 31.066406 Z M 27 12.476562 C 26.683594 12.394531 26.367188 12.320312 26.058594 12.25 C 21.0625 11.128906 16.84375 11.558594 14.261719 14.140625 C 11.679688 16.722656 11.25 20.941406 12.371094 25.9375 C 12.441406 26.246094 12.515625 26.5625 12.597656 26.878906 C 15.734375 25.421875 19.378906 24.199219 23.394531 23.273438 C 24.320312 19.257812 25.542969 15.613281 27 12.476562 Z M 51.550781 10.746094 C 51.386719 10.460938 51.214844 10.1875 51.046875 9.917969 C 48.308594 5.59375 45.019531 2.914062 41.367188 2.914062 C 37.714844 2.914062 34.429688 5.59375 31.691406 9.917969 C 31.519531 10.1875 31.351562 10.460938 31.1875 10.746094 C 34.433594 11.933594 37.875 13.644531 41.367188 15.828125 C 44.863281 13.644531 48.304688 11.933594 51.550781 10.746094 Z M 70.136719 26.878906 C 70.21875 26.5625 70.296875 26.246094 70.367188 25.9375 C 71.488281 20.941406 71.058594 16.722656 68.476562 14.140625 C 65.894531 11.558594 61.671875 11.128906 56.679688 12.25 C 56.367188 12.320312 56.054688 12.394531 55.738281 12.476562 C 57.195312 15.613281 58.417969 19.257812 59.34375 23.273438 C 63.359375 24.199219 67 25.421875 70.136719 26.878906 Z M 71.871094 51.429688 C 72.152344 51.265625 72.429688 51.097656 72.699219 50.925781 C 77.023438 48.1875 79.703125 44.898438 79.703125 41.246094 C 79.703125 37.59375 77.023438 34.308594 72.699219 31.570312 C 72.429688 31.398438 72.152344 31.230469 71.871094 31.066406 C 70.683594 34.3125 68.972656 37.753906 66.789062 41.246094 C 68.972656 44.742188 70.683594 48.183594 71.871094 51.429688 Z M 55.738281 70.015625 C 56.054688 70.097656 56.367188 70.175781 56.679688 70.246094 C 61.671875 71.367188 65.894531 70.9375 68.476562 68.355469 C 71.058594 65.773438 71.488281 61.554688 70.367188 56.558594 C 70.296875 56.246094 70.21875 55.933594 70.136719 55.617188 C 67 57.074219 63.359375 58.296875 59.34375 59.222656 C 58.417969 63.238281 57.195312 66.878906 55.738281 70.015625 Z M 31.1875 71.75 C 31.351562 72.035156 31.519531 72.308594 31.691406 72.578125 C 34.429688 76.902344 37.714844 79.582031 41.367188 79.582031 C 45.019531 79.582031 48.308594 76.902344 51.046875 72.578125 C 51.214844 72.308594 51.386719 72.035156 51.550781 71.75 C 48.304688 70.5625 44.863281 68.851562 41.367188 66.667969 C 37.875 68.851562 34.433594 70.5625 31.1875 71.75 Z M 12.597656 55.617188 C 12.515625 55.933594 12.441406 56.246094 12.371094 56.558594 C 11.25 61.554688 11.679688 65.773438 14.261719 68.355469 C 16.84375 70.9375 21.0625 71.367188 26.058594 70.246094 C 26.367188 70.175781 26.683594 70.097656 27 70.015625 C 25.542969 66.878906 24.320312 63.238281 23.394531 59.222656 C 19.378906 58.296875 15.734375 57.074219 12.597656 55.617188 Z M 22.746094 26.414062 C 19.300781 27.285156 16.171875 28.390625 13.460938 29.6875 C 14.460938 32.523438 15.890625 35.515625 17.710938 38.566406 C 18.957031 36.757812 20.328125 34.945312 21.816406 33.148438 C 22.035156 30.828125 22.347656 28.574219 22.746094 26.414062 Z M 17.710938 43.929688 C 15.890625 46.980469 14.460938 49.972656 13.460938 52.808594 C 16.171875 54.105469 19.300781 55.210938 22.746094 56.078125 C 22.347656 53.917969 22.035156 51.667969 21.816406 49.347656 C 20.328125 47.550781 18.957031 45.738281 17.710938 43.929688 Z M 38.6875 17.589844 C 35.636719 15.769531 32.640625 14.339844 29.808594 13.339844 C 28.511719 16.050781 27.40625 19.179688 26.535156 22.625 C 28.695312 22.226562 30.945312 21.914062 33.269531 21.695312 C 35.066406 20.207031 36.878906 18.839844 38.6875 17.589844 Z M 56.199219 22.625 C 55.332031 19.179688 54.226562 16.050781 52.925781 13.339844 C 50.09375 14.339844 47.101562 15.769531 44.050781 17.589844 C 45.859375 18.839844 47.667969 20.207031 49.46875 21.695312 C 51.789062 21.914062 54.039062 22.226562 56.199219 22.625 Z M 65.023438 38.566406 C 66.847656 35.515625 68.277344 32.523438 69.273438 29.6875 C 66.566406 28.390625 63.4375 27.285156 59.992188 26.414062 C 60.386719 28.574219 60.699219 30.828125 60.921875 33.148438 C 62.40625 34.945312 63.777344 36.757812 65.023438 38.566406 Z M 59.992188 56.078125 C 63.4375 55.210938 66.566406 54.105469 69.273438 52.808594 C 68.277344 49.972656 66.847656 46.980469 65.023438 43.929688 C 63.777344 45.738281 62.40625 47.550781 60.921875 49.347656 C 60.699219 51.667969 60.386719 53.917969 59.992188 56.078125 Z M 44.050781 64.90625 C 47.101562 66.726562 50.09375 68.15625 52.925781 69.15625 C 54.226562 66.445312 55.332031 63.316406 56.199219 59.871094 C 54.039062 60.269531 51.789062 60.582031 49.46875 60.800781 C 47.667969 62.285156 45.859375 63.65625 44.050781 64.90625 Z M 26.535156 59.871094 C 27.40625 63.316406 28.511719 66.445312 29.808594 69.15625 C 32.640625 68.15625 35.636719 66.726562 38.6875 64.90625 C 36.878906 63.65625 35.066406 62.285156 33.269531 60.800781 C 30.945312 60.582031 28.695312 60.269531 26.535156 59.871094 Z M 21.488281 38.28125 C 20.753906 39.269531 20.058594 40.261719 19.402344 41.246094 C 20.058594 42.234375 20.753906 43.222656 21.488281 44.210938 C 21.453125 43.234375 21.4375 42.246094 21.4375 41.246094 C 21.4375 40.25 21.453125 39.261719 21.488281 38.28125 Z M 25.835938 25.714844 C 25.601562 26.878906 25.394531 28.070312 25.214844 29.285156 C 25.882812 28.570312 26.570312 27.859375 27.273438 27.152344 C 27.980469 26.449219 28.691406 25.761719 29.40625 25.09375 C 28.1875 25.273438 26.996094 25.480469 25.835938 25.714844 Z M 25.214844 53.210938 C 25.394531 54.425781 25.601562 55.617188 25.835938 56.78125 C 26.996094 57.011719 28.1875 57.222656 29.40625 57.402344 C 28.691406 56.734375 27.980469 56.046875 27.273438 55.339844 C 26.570312 54.636719 25.882812 53.925781 25.214844 53.210938 Z M 41.367188 19.28125 C 40.382812 19.9375 39.390625 20.632812 38.402344 21.367188 C 39.382812 21.332031 40.371094 21.316406 41.367188 21.316406 C 42.367188 21.316406 43.355469 21.332031 44.332031 21.367188 C 43.34375 20.632812 42.355469 19.9375 41.367188 19.28125 Z M 56.898438 25.714844 C 55.738281 25.480469 54.546875 25.273438 53.328125 25.09375 C 54.046875 25.761719 54.757812 26.449219 55.460938 27.152344 C 56.167969 27.859375 56.855469 28.570312 57.523438 29.285156 C 57.34375 28.070312 57.132812 26.878906 56.898438 25.714844 Z M 63.332031 41.246094 C 62.675781 40.261719 61.984375 39.269531 61.25 38.28125 C 61.28125 39.261719 61.300781 40.25 61.300781 41.246094 C 61.300781 42.246094 61.28125 43.234375 61.25 44.210938 C 61.984375 43.222656 62.675781 42.234375 63.332031 41.246094 Z M 56.898438 56.78125 C 57.132812 55.617188 57.34375 54.425781 57.523438 53.210938 C 56.855469 53.925781 56.167969 54.636719 55.460938 55.339844 C 54.757812 56.046875 54.046875 56.734375 53.328125 57.402344 C 54.546875 57.222656 55.738281 57.011719 56.898438 56.78125 Z M 41.367188 63.214844 C 42.355469 62.558594 43.34375 61.863281 44.332031 61.128906 C 43.355469 61.164062 42.367188 61.179688 41.367188 61.179688 C 40.371094 61.179688 39.382812 61.164062 38.402344 61.128906 C 39.390625 61.863281 40.382812 62.558594 41.367188 63.214844 Z M 35.085938 44.179688 L 32.910156 49.519531 L 30.277344 48.445312 L 36.617188 32.894531 L 39.25 32.894531 L 45.589844 48.445312 L 42.957031 49.519531 L 40.78125 44.179688 Z M 39.621094 41.335938 L 37.933594 37.195312 L 36.246094 41.335938 Z M 47.054688 32.664062 L 49.894531 32.664062 L 49.894531 49.234375 L 47.054688 49.234375 Z M 47.054688 32.664062 "/></g></g></svg>